<svg xmlns="http://www.w3.org/2000/svg" xmlns:xlink="http://www.w3.org/1999/xlink" width="40" height="40" viewBox="0 0 40 40">
  <defs>
    <clipPath id="clip-path">
      <rect id="사각형_11" data-name="사각형 11" width="14.25" height="17.5" fill="#fff"/>
    </clipPath>
  </defs>
  <g id="ico_sns_apple_40" transform="translate(-1447 164)">
    <g id="그룹_29" data-name="그룹 29" transform="translate(1447 -164)">
      <circle id="타원_5" data-name="타원 5" cx="20" cy="20" r="20"/>
    </g>
    <g id="그룹_31" data-name="그룹 31" transform="translate(1460 -154.05)">
      <g id="그룹_19" data-name="그룹 19" clip-path="url(#clip-path)">
        <path id="패스_10" data-name="패스 10" d="M11.9,45.3a3.952,3.952,0,0,1,1.889-3.327,4.1,4.1,0,0,0-3.2-1.739c-1.364-.137-2.662.8-3.352.8s-1.759-.782-2.888-.759A4.283,4.283,0,0,0,.733,42.467c-1.543,2.678-.4,6.647,1.11,8.818C2.578,52.348,3.453,53.542,4.6,53.5c1.11-.043,1.529-.716,2.87-.716s1.716.716,2.89.7c1.191-.025,1.948-1.088,2.676-2.151a9.707,9.707,0,0,0,1.213-2.491A3.861,3.861,0,0,1,11.9,45.3" transform="translate(0 -36)" fill="#fff"/>
        <path id="패스_11" data-name="패스 11" d="M70.15,2.792A3.838,3.838,0,0,0,71.061,0a3.919,3.919,0,0,0-2.576,1.324,3.667,3.667,0,0,0-.93,2.71A3.248,3.248,0,0,0,70.15,2.792" transform="translate(-60.452 0.001)" fill="#fff"/>
      </g>
    </g>
  </g>
</svg>
